<svg id="visual" viewBox="0 0 900 600" width="900" height="600" xmlns="http://www.w3.org/2000/svg" xmlns:xlink="http://www.w3.org/1999/xlink" version="1.1"><path d="M0 55L82 109L164 55L245 55L327 91L409 103L491 133L573 97L655 91L736 127L818 139L900 73L900 0L818 0L736 0L655 0L573 0L491 0L409 0L327 0L245 0L164 0L82 0L0 0Z" fill="#00cc8e"></path><path d="M0 139L82 193L164 127L245 127L327 145L409 139L491 181L573 157L655 139L736 199L818 187L900 157L900 71L818 137L736 125L655 89L573 95L491 131L409 101L327 89L245 53L164 53L82 107L0 53Z" fill="#00bd8b"></path><path d="M0 217L82 253L164 223L245 205L327 217L409 199L491 271L573 235L655 199L736 283L818 253L900 229L900 155L818 185L736 197L655 137L573 155L491 179L409 137L327 143L245 125L164 125L82 191L0 137Z" fill="#00ae87"></path><path d="M0 331L82 421L164 325L245 331L327 379L409 355L491 451L573 445L655 373L736 463L818 385L900 415L900 227L818 251L736 281L655 197L573 233L491 269L409 197L327 215L245 203L164 221L82 251L0 215Z" fill="#00a081"></path><path d="M0 385L82 493L164 403L245 403L327 457L409 403L491 493L573 487L655 445L736 529L818 451L900 469L900 413L818 383L736 461L655 371L573 443L491 449L409 353L327 377L245 329L164 323L82 419L0 329Z" fill="#00917b"></path><path d="M0 601L82 601L164 601L245 601L327 601L409 601L491 601L573 601L655 601L736 601L818 601L900 601L900 467L818 449L736 527L655 443L573 485L491 491L409 401L327 455L245 401L164 401L82 491L0 383Z" fill="#038373"></path></svg>